{"title":"Ma mere (2004) DVD RIP Uncut NC-17","uid":9293192,"size":1538476760,"categoryP":"video","categoryS":"movies","magnet":"?xt=urn:btih:82cc7fe8dc9d02235d596cac5fce9d97262ec57d&amp;dn=Ma+mere+%282004%29+DVD+RIP+Uncut+NC-17&amp;tr=udp%3A%2F%2Ftracker.openbittorrent.com%3A80&amp;tr=udp%3A%2F%2Fopen.demonii.com%3A1337&amp;tr=udp%3A%2F%2Ftracker.coppersurfer.tk%3A6969&amp;tr=udp%3A%2F%2Fexodus.desync.com%3A6969","seeders":5,"leechers":1,"uploader":null,"files":-1,"time":1386122869,"description":" &lt;a href=&quot;http://postimg.org/image/z13gp1wlr/&quot; rel=&quot;nofollow&quot; target=&quot;_NEW&quot;&gt;http://postimg.org/image/z13gp1wlr/&lt;/a&gt;\n &lt;a href=&quot;\nhttp://postimg.org/image/aw2r7ccb3/&quot; rel=&quot;nofollow&quot; target=&quot;_NEW&quot;&gt;\nhttp://postimg.org/image/aw2r7ccb3/&lt;/a&gt;\n &lt;a href=&quot;\nhttp://www.imdb.com/title/tt0381392/&quot; rel=&quot;nofollow&quot; target=&quot;_NEW&quot;&gt;\nhttp://www.imdb.com/title/tt0381392/&lt;/a&gt;\n\n\nStoryline\n\nPierre, a youth, comes from his grandmother's in France to stay with his parents in the Canary Islands. His father talks oddly about his lost youth and leaves abruptly for France. Mom promises to take Pierre to a nightclub, remarking that people will think he's her lover. He prays. His father dies in France, and his mother wants him to empty his father's office; Pierre finds it full of pornography. His mother takes him in tow into a night world without morality, a world of sexual exploitation, exhibitionism, and wildness. What will Pierre make of this, and what, ultimately, will he make of his mother? \n\n\nEnglish Subtitles Included\n\n\nFormat                                   : MPEG-4\nFormat profile                           : Base Media / Version 2\nCodec ID                                 : mp42\nFile size                                : 1.43 GiB\nDuration                                 : 1h 47mn\nOverall bit rate mode                    : Variable\nOverall bit rate                         : 1 894 Kbps\nEncoded date                             : UTC 2013-12-01 00:42:47\nTagged date                              : UTC 2013-12-01 01:51:37\nWriting application                      : HandBrake 0.9.9 2013052900\n\nVideo\nID                                       : 1\nFormat                                   : AVC\nFormat/Info                              : Advanced Video Codec\nFormat profile                           : &lt;a class=&quot;__cf_email__&quot; href=&quot;/cdn-cgi/l/email-protection&quot; data-cfemail=&quot;f3be929a9db3bfc6ddc1&quot;&gt;[email&amp;#160;protected]&lt;/a&gt;&lt;script cf-hash='f9e31' type=&quot;text/javascript&quot;&gt;\n/* &lt;![CDATA[ */!function(){try{var t=&quot;currentScript&quot;in document?document.currentScript:function(){for(var t=document.getElementsByTagName(&quot;script&quot;),e=t.length;e--;)if(t[e].getAttribute(&quot;cf-hash&quot;))return t[e]}();if(t&amp;&amp;t.previousSibling){var e,r,n,i,c=t.previousSibling,a=c.getAttribute(&quot;data-cfemail&quot;);if(a){for(e=&quot;&quot;,r=parseInt(a.substr(0,2),16),n=2;a.length-n;n+=2)i=parseInt(a.substr(n,2),16)^r,e+=String.fromCharCode(i);e=document.createTextNode(e),c.parentNode.replaceChild(e,c)}}}catch(u){}}();/* ]]&gt; */&lt;/script&gt;\nFormat settings, CABAC                   : Yes\nFormat settings, ReFrames                : 4 frames\nCodec ID                                 : avc1\nCodec ID/Info                            : Advanced Video Coding\nDuration                                 : 1h 47mn\nBit rate                                 : 1 793 Kbps\nWidth                                    : 720 pixels\nHeight                                   : 480 pixels\nDisplay aspect ratio                     : 16:9\nOriginal display aspect ratio            : 16:9\nFrame rate mode                          : Constant\nFrame rate                               : 29.970 fps\nStandard                                 : NTSC\nColor space                              : YUV\nChroma subsampling                       : 4:2:0\nBit depth                                : 8 bits\nScan type                                : Progressive\nBits/(Pixel*Frame)                       : 0.173\nStream size                              : 1.35 GiB (95%)\nWriting library                          : x264 core 130 r2273 b3065e6\nEncoding settings                        : cabac=1 / ref=3 / deblock=1:0:0 / \nEncoded date                             : UTC 2013-12-01 00:42:47\nTagged date                              : UTC 2013-12-01 01:51:37\nColor primaries                          : BT.601 NTSC\nTransfer characteristics                 : BT.709\nMatrix coefficients                      : BT.601\n\nAudio\nID                                       : 2\nFormat                                   : AAC\nFormat/Info                              : Advanced Audio Codec\nFormat profile                           : LC\nCodec ID                                 : 40\nDuration                                 : 1h 47mn\nBit rate mode                            : Variable\nBit rate                                 : 93.2 Kbps\nMaximum bit rate                         : 183 Kbps\nChannel(s)                               : 2 channels\nChannel positions                        : Front: L R\nSampling rate                            : 48.0 KHz\nCompression mode                         : Lossy\nStream size                              : 71.9 MiB (5%)\nLanguage                                 : French\nEncoded date                             : UTC 2013-12-01 00:42:47\nTagged date                              : UTC 2013-12-01 01:51:36\n\n","torrent":{"xt":"urn:btih:82cc7fe8dc9d02235d596cac5fce9d97262ec57d","amp;dn":"Ma+mere+%282004%29+DVD+RIP+Uncut+NC-17","amp;tr":["udp%3A%2F%2Ftracker.openbittorrent.com%3A80","udp%3A%2F%2Fopen.demonii.com%3A1337","udp%3A%2F%2Ftracker.coppersurfer.tk%3A6969","udp%3A%2F%2Fexodus.desync.com%3A6969"],"infoHash":"82cc7fe8dc9d02235d596cac5fce9d97262ec57d","infoHashBuffer":{"type":"Buffer","data":[130,204,127,232,220,157,2,35,93,89,108,172,95,206,157,151,38,46,197,125]},"announce":[],"urlList":[]}}